<svg xmlns="http://www.w3.org/2000/svg" viewBox="0 0 250.07 648.37"><defs><style>.cls-1{fill:#b9fff6;stroke:#17e8ff;stroke-miterlimit:10;}</style></defs><title>israel map</title><g id="Layer_2" data-name="Layer 2"><g id="Layer_1-2" data-name="Layer 1"><path class="cls-1" d="M.57,329.5l21-18,22-27,16-22,16-32,11-29,10-39,8-30,4-19v-10l3-6,2-18h5l7,5,5-5v-17l4-21,6-6h23l10,5,5,1,16-6,5-9v-13l7-8,4,6,7-6,10-5h12s-1,8,0,11,5,16,5,16-3,9,0,11,5,4,5,12v24a14.09,14.09,0,0,0-3,5,33.28,33.28,0,0,1-6,10c-2,2-6,4-8,6s-5,3-10,6-15,8-15,8l-5,7-1,5s-1,7-1,9v23c0,2,0,15,1,17s-1,5,0,13-2,7-1,12-4,3-4,8-1,4-1,11v11c0,3-1,7-1,11v21c0,2,5,11,5,11l-1,13-3,23,2,11v14l-5,13-6,3-4-10-4,4-4,6v3l1,3,5,4,3,3h4l4,5-1,6-1,3-3,4-4,4s-5,3-5,6-4,5-3,7-2,4-1,7-2,5-2,5l-3,2-2,3-4,8-2,7-1,6a66.59,66.59,0,0,0-3,7l-5,15-6,9s-6,8-5,10-2,12-2,12-1-1-2,5a59.4,59.4,0,0,0-1,11v7l-1,6s0-1-1,5-3,7-2,9,0,3,0,6v14a20.34,20.34,0,0,0-1,5c0,2-2,5-2,5l-3,4a10,10,0,0,1-1,4c-1,2-2,2-3,5l-2,6s1,0-1,5-3,18-3,18l-4,12,1,9-4,6-1,12h-6l-3,5-3,4-2-3-2-4-1-8s-2-2-1-6-1-10,0-12-1-3-2-9-2-16-2-16-2-5-2-7,5,10-1-7-10-22-10-22l-6-9-1-11-3-13a84.92,84.92,0,0,1-3-9c-1-4-1-11-3-13s-7-8-7-8l-4-4-1-5v-8l-1-4-3-2s-1,0-1-3v-11l-14-36-10-36Z"/></g></g></svg>