<svg xmlns="http://www.w3.org/2000/svg" viewBox="0 0 249.07 645.37"><defs><style>.cls-1{fill:#ffc920;}.cls-1,.cls-2,.cls-3,.cls-4,.cls-6{stroke:#17e8ff;stroke-miterlimit:10;}.cls-2{fill:#b9fff6;}.cls-3{fill:#00ad5c;}.cls-4{fill:#46e7ff;}.cls-5{font-size:15px;fill:#00365c;font-family:Aharoni-Bold, Aharoni;font-weight:700;}.cls-6{fill:#ffb;}</style></defs><title>Israel map</title><g id="Layer_2" data-name="Layer 2"><g id="Layer_1-2" data-name="Layer 1"><path class="cls-1" d="M120.07,317c2-1,4-4,4-5,2-6-2-13-4-18-2-11-11-21-13-26-10.88-27.68,1.7-60.25,3.92-90.95-5.86,4.07-13.09,5.06-20.48,5.19L85.57,201.5l-11,29-16,32-16,22L34,295.07c7.54,2.8,15,5.86,22.11,8.93,7,4,18,5,26,9,1,1,5,3,6,4C98.07,320,109.07,319,120.07,317Z"/><path class="cls-2" d="M98.07,376a12.94,12.94,0,0,0,2.78,4c-.12-1.35-.19-2.68-.19-4A5.7,5.7,0,0,1,98.07,376Z"/><path class="cls-2" d="M176.55,386.78h-.23l.23.07Z"/><path class="cls-2" d="M166.07,385c.73-.05,1.45-.08,2.18-.12l.2-3.2a18.27,18.27,0,0,0-3.22.68c.2.23.41.46.62.67C165.91,383.68,166,384.34,166.07,385Z"/><path class="cls-2" d="M184.07,387"/><path class="cls-2" d="M205.42,386.31"/><path class="cls-2" d="M205.42,386.31"/><path class="cls-2" d="M165.65,379"/><path class="cls-3" d="M243.57,38.5c-3-2,0-11,0-11s-4-13-5-16,0-11,0-11h-12l-10,5-7,6-4-6-7,8v13l-5,9-16,6-5-1-10-5h-23l-6,6-4,21v17l-5,5-1.75-1.25c2.1,10.82,7.74,20.22,12.25,30.75,2,4,5,11,2,13-4,4-11,8-7,15a28.36,28.36,0,0,0,6.06,5.33c.62-.14,1.26-.25,1.94-.33-.68.08-1.32.2-1.94.33,5.15,3.33,11,4.47,15.94,1.67,10-6,23-7,33,0,3.76,2.5,9.08,3.83,14.5,5,0-.19,0-.35,0-.47v-23c0-2,1-9,1-9l1-5,5-7s10-5,15-8,8-4,10-6,6-4,8-6a33.28,33.28,0,0,0,6-10,14.09,14.09,0,0,1,3-5v-24C248.57,42.5,246.57,40.5,243.57,38.5Z"/><path class="cls-4" d="M135.07,114c-4.51-10.53-10.15-19.93-12.25-30.75l-5.25-3.75h-5l-2,18-3,6v10l-4,19-8,30-5.06,19.74c7.39-.13,14.62-1.12,20.48-5.19,0-.35.06-.7.08-1.05,0,.35-.05.7-.08,1.05l.08-.05c11.52-7.68,10.15-26.41,25.06-29.67a28.36,28.36,0,0,1-6.06-5.33c-4-7,3-11,7-15C140.07,125,137.07,118,135.07,114Z"/><text class="cls-5" transform="translate(66.26 148.66)">איזור חיפה</text><text class="cls-5" transform="translate(167.86 79.66)">צפון</text><text class="cls-5" transform="translate(67.03 277.66)">מרכז</text><path class="cls-2" d="M107.07,410c-12-4-12-20-9-31,2-5,12-2,12-6,0-17,8-29,14-43,2.4-5.75.88-11.51-1.23-17.37a7,7,0,0,1-1.77,1.37c-11,2-22,3-32,0-1-1-5-3-6-4-8-4-19-5-26-9-7.15-3.07-14.57-6.13-22.11-8.93L21.57,308.5l-21,18,15,52,10,36,14,36v11c0,3,1,3,1,3l3,2,1,4v8l1,5,4,4s5,6,7,8,2,9,3,13a84.92,84.92,0,0,0,3,9l3,13,1,11,6,9s4,5,10,22,1,5,1,7,2,7,2,7,1,10,2,16,3,7,2,9,1,8,0,12,1,6,1,6l1,8,2,4,2,3,3-4,3-5h6l1-12,4-6-1-9,4-12s1-13,3-18,1-5,1-5l2-6c1-3,2-3,3-5a10,10,0,0,0,1-4l3-4s2-3,2-5a20.34,20.34,0,0,1,1-5v-14c0-3,1-4,0-6s1-3,2-9,1-5,1-5l1-6v-7a59.4,59.4,0,0,1,1-11c1-6,2-5,2-5s3-10,2-12,5-10,5-10l6-9,5-15a66.59,66.59,0,0,1,3-7l1-6,2-7,4-8,2-3,3-2s3-2,2-5,2-5,1-7,2.69-3.85,3-6.66l-.23-.07h.23a2.54,2.54,0,0,0,0-.28c0-3,5-6,5-6l4-4,1.39-1.85C165.71,377.44,146.39,393,127.07,408,122.07,413,114.07,413,107.07,410Z"/><text class="cls-5" transform="translate(46.24 388.66)">דרום</text><path class="cls-6" d="M188.57,367.5l1-6-4-5h-4l-3-3-5-4-1-3v-3l4-6,4-4,4,10,6-3,5-13v-14l-2-11,3-23,1-13s-5-9-5-11v-21c0-4,1-8,1-11v-11c0-7,1-6,1-11s5-3,4-8,2-4,1-12,1-11,0-13-1-13.5-1-16.53c-5.42-1.13-10.74-2.46-14.5-5-10-7-23-6-33,0-4.91,2.8-10.79,1.67-15.94-1.67-14.91,3.26-13.54,22-25.06,29.67l-.08.05c-2.22,30.69-14.8,63.26-3.92,90.95,2,5,11,15,13,26,2,5,6,12,4,18,0,.69-1,2.34-2.23,3.63,2.11,5.86,3.63,11.62,1.23,17.37-6,14-14,26-14,43,0,4-10,1-12,6-3,11-3,27,9,31,7,3,15,3,20-2,19.32-15,38.64-30.56,60.89-36.35l1.61-2.15Z"/><text class="cls-5" transform="translate(137.75 240.66)">יהודה </text><text class="cls-5" transform="translate(132.56 255.66)">ושומרון</text></g></g></svg>